<svg width="28" height="28" viewBox="0 0 28 28" fill="none" xmlns="http://www.w3.org/2000/svg">
<rect x="1" y="1" width="26" height="26" rx="13" fill="#17A456" stroke="#FBFCFD" stroke-width="2"/>
<g clip-path="url(#clip0_3217_18030)">
<path d="M17.6569 8.40002C17.2239 8.40002 10.6704 8.40002 10.2975 8.40002C9.78058 8.40002 9.35999 8.82062 9.35999 9.33752V19.4625C9.35999 19.9794 9.78058 20.4 10.2975 20.4H17.6569C18.1738 20.4 18.5944 19.9794 18.5944 19.4625V9.33752C18.5944 8.82062 18.1738 8.40002 17.6569 8.40002ZM15.3524 9.33752L15.3528 10.2437C15.3528 10.2437 15.3526 10.2438 15.3522 10.2438H12.6021V9.33752H15.3524ZM17.6569 19.4625H10.2975V9.33752H11.6646V10.2438C11.6646 10.7607 12.0852 11.1813 12.6021 11.1813H15.3522C15.8691 11.1813 16.2897 10.7607 16.2897 10.2438V9.33752H17.6569L17.6574 19.4625C17.6574 19.4625 17.6573 19.4625 17.6569 19.4625ZM16.2897 16.2438C16.2897 16.5027 16.0799 16.7126 15.821 16.7126H12.1334C11.8745 16.7126 11.6646 16.5027 11.6646 16.2438C11.6646 15.9849 11.8745 15.7751 12.1334 15.7751H15.821C16.0799 15.7751 16.2897 15.9849 16.2897 16.2438ZM16.2897 13.4782C16.2897 13.7371 16.0799 13.9469 15.821 13.9469H12.1334C11.8745 13.9469 11.6646 13.7371 11.6646 13.4782C11.6646 13.2193 11.8745 13.0094 12.1334 13.0094H15.821C16.0799 13.0094 16.2897 13.2193 16.2897 13.4782Z" fill="white"/>
</g>
<defs>
<clipPath id="clip0_3217_18030">
<rect width="16" height="16" fill="white" transform="translate(6 6)"/>
</clipPath>
</defs>
</svg>
