<svg width="24" height="24" viewBox="0 0 24 24" fill="none" xmlns="http://www.w3.org/2000/svg">
<path d="M10.0466 4.01218C10.3413 3.08119 11.6588 3.08119 11.9534 4.01218L13.7284 9.62004C13.8266 9.93035 14.0697 10.1735 14.38 10.2717L19.9879 12.0466C20.9188 12.3413 20.9189 13.6587 19.9879 13.9534L14.38 15.7283C14.0697 15.8266 13.8266 16.0697 13.7284 16.38L11.9534 21.9878C11.6588 22.9188 10.3413 22.9188 10.0466 21.9878L8.2717 16.38C8.17348 16.0697 7.93039 15.8266 7.62007 15.7283L2.01221 13.9534C1.08122 13.6587 1.08122 12.3413 2.01221 12.0466L7.62007 10.2717C7.93038 10.1735 8.17348 9.93035 8.2717 9.62004L10.0466 4.01218Z" fill="#F1B740"/>
<path d="M19.6063 0.28835C19.728 -0.0961161 20.272 -0.096117 20.3937 0.288349L21.1267 2.6042C21.1673 2.73234 21.2677 2.83274 21.3958 2.8733L23.7117 3.60629C24.0961 3.72797 24.0961 4.27203 23.7117 4.39371L21.3958 5.1267C21.2677 5.16726 21.1673 5.26765 21.1267 5.3958L20.3937 7.71165C20.272 8.09612 19.728 8.09612 19.6063 7.71165L18.8733 5.3958C18.8327 5.26766 18.7323 5.16726 18.6042 5.1267L16.2884 4.39371C15.9039 4.27203 15.9039 3.72797 16.2883 3.60629L18.6042 2.8733C18.7323 2.83274 18.8327 2.73235 18.8733 2.6042L19.6063 0.28835Z" fill="#F1B740"/>
<path d="M2.70471 18.2163C2.79598 17.9279 3.20402 17.9279 3.29529 18.2163L3.84503 19.9531C3.87545 20.0493 3.95074 20.1246 4.04685 20.155L5.78374 20.7047C6.07209 20.796 6.07209 21.204 5.78374 21.2953L4.04685 21.845C3.95074 21.8754 3.87545 21.9507 3.84503 22.0469L3.29529 23.7837C3.20402 24.0721 2.79598 24.0721 2.70471 23.7837L2.15497 22.0469C2.12455 21.9507 2.04926 21.8754 1.95315 21.845L0.216263 21.2953C-0.0720871 21.204 -0.0720877 20.796 0.216262 20.7047L1.95315 20.155C2.04926 20.1246 2.12455 20.0493 2.15497 19.9531L2.70471 18.2163Z" fill="#F1B740"/>
</svg>
