<svg version="1.1" xmlns="http://www.w3.org/2000/svg" xmlns:xlink="http://www.w3.org/1999/xlink" width="80" height="91.91958" viewBox="0,0,80,91.91958"><g transform="translate(-214.78551,-121.40542)"><g data-paper-data="{&quot;isPaintingLayer&quot;:true}" fill-rule="nonzero" stroke-width="2" stroke-linejoin="miter" stroke-miterlimit="10" stroke-dasharray="" stroke-dashoffset="0" style="mix-blend-mode: normal"><path d="" fill="#9966ff" stroke="#000000" stroke-linecap="butt"/><path d="" fill="#6eb181" stroke="#000000" stroke-linecap="butt"/><path d="" fill="#6eb181" stroke="#000000" stroke-linecap="butt"/><path d="" fill="#5daf62" stroke="#000000" stroke-linecap="round"/><path d="" fill="#5daf62" stroke="#000000" stroke-linecap="round"/><path d="M252.41051,140.30001c0,7.1797 -6.04415,13 -13.5,13c-7.45585,0 -13.5,-5.8203 -13.5,-13c0,-7.1797 6.04415,-13 13.5,-13c7.45585,0 13.5,5.8203 13.5,13z" fill="#fff700" stroke="#000000" stroke-linecap="butt"/><path d="M249.41051,131.30001l2,-7l-13,5l-17,-6l5,8z" fill="none" stroke="#000000" stroke-linecap="round"/><path d="M236.41051,146.30001c0,1.52572 1.539,5.10194 0.1257,5.77647c-0.63306,0.30214 -3.85686,-1.77647 -4.6257,-1.77647c-2.48528,0 -4.5,-1.79086 -4.5,-4c0,-0.97573 -1.35697,-2.86986 -0.70396,-3.56412c0.82547,-0.87762 3.81637,-0.43588 5.20396,-0.43588c2.48528,0 4.5,1.79086 4.5,4z" fill="#dcdcdc" stroke="#000000" stroke-linecap="butt"/><path d="M250.78551,146.95c0,1.86396 -1.62297,3.375 -3.625,3.375c-1.14182,0 -3.91034,2.5085 -4.5748,1.74033c-0.50058,-0.57871 0.9498,-4.31445 0.9498,-5.11533c0,-1.86396 1.62297,-3.375 3.625,-3.375c0.64297,0 4.49684,-1.09414 5.02041,-0.8208c1.10668,0.57777 -1.39541,2.93047 -1.39541,4.1958z" fill="#dcdcdc" stroke="#000000" stroke-linecap="butt"/><path d="M247.03551,129.325v-1.75h0.75v1.75z" fill="#000000" stroke="#000000" stroke-linecap="butt"/><path d="M247.78551,128.575v-2.25h1.5v2.25z" fill="#000000" stroke="#000000" stroke-linecap="butt"/><path d="M226.28551,130.325v-2.25h19v2.25z" fill="#000000" stroke="#000000" stroke-linecap="butt"/><path d="M224.53551,126.075v-0.25h2.75v0.25z" fill="#000000" stroke="#000000" stroke-linecap="butt"/><path d="M225.28551,127.325v-1.5h2.75v1.5z" fill="#000000" stroke="#000000" stroke-linecap="butt"/><path d="" fill="#000000" stroke="#000000" stroke-linecap="butt"/><path d="M233.28551,187.575c0,0 -3.86973,-2.48533 -4.88848,-7.02502c-1.53984,-6.86175 -0.4201,-17.13234 -0.15196,-20.41705c0.14587,-1.78691 2.54044,-6.05793 2.54044,-6.05793c0,0 2.17969,-1.98127 3.2415,-1.96442c1.46825,0.0233 6.9891,-0.36841 10.22106,0.3768c2.50583,0.57779 3.03744,2.33761 3.03744,2.33761c0,0 1.5,3.5453 1.5,4.5c0,2.8613 0.89301,14.42359 0.15228,21.84011c-0.37243,3.72896 -2.65228,6.40989 -2.65228,6.40989c0,0 -5.08334,1.25 -7.25,1.25c-2.16666,0 -5.75,-1.25 -5.75,-1.25z" fill="#fff700" stroke="#000000" stroke-linecap="butt"/><path d="M235.53551,174.7c0,3.82136 0.21673,9.32261 -0.03911,11.67513c-0.16476,1.51497 -0.37918,0.69987 -1.46089,0.69987c-2.76143,0 -5,-5.09276 -5,-11.375c0,-3.60877 -1.26131,-8.82503 -0.10916,-10.9089c0.85354,-1.54379 3.93401,-0.4661 5.10916,-0.4661c2.76143,0 1.5,4.09276 1.5,10.375z" fill="#cecece" stroke="#000000" stroke-linecap="butt"/><path d="M247.78551,175.2c0,6.42031 -1.39911,11.625 -3.125,11.625c-1.3151,0 -2.69047,1.72804 -3.15168,-2.55101c-0.14406,-1.3366 0.02668,-7.54586 0.02668,-9.07399c0,-3.1449 -0.16429,-7.99813 0.38108,-10.09084c0.568,-2.17955 1.86344,-1.53416 2.74392,-1.53416c0.76318,0 2.96247,-0.48228 3.50514,1.20822c0.68454,2.13247 -0.38014,6.83551 -0.38014,10.41678z" fill="#cecece" stroke="#000000" stroke-linecap="butt"/><path d="M241.03551,159.2c0,1.44975 -0.83946,2.625 -1.875,2.625c-1.03554,0 -1.875,-1.17525 -1.875,-2.625c0,-1.44975 0.83946,-2.625 1.875,-2.625c1.03554,0 1.875,1.17525 1.875,2.625z" fill="#00ffff" stroke="#00ffff" stroke-linecap="butt"/><path d="M240.03551,159.575c0,0.69036 -0.39175,1.25 -0.875,1.25c-0.48325,0 -0.875,-0.55964 -0.875,-1.25c0,-0.69036 0.39175,-1.25 0.875,-1.25c0.48325,0 0.875,0.55964 0.875,1.25z" fill="#006bff" stroke="#005fff" stroke-linecap="butt"/><path d="M234.53551,197.7c0,6.83453 -0.7835,12.375 -1.75,12.375c-0.9665,0 -1.75,-5.54047 -1.75,-12.375c0,-6.83453 0.7835,-12.375 1.75,-12.375c0.9665,0 1.75,5.54047 1.75,12.375z" fill="#fff900" stroke="#000000" stroke-linecap="butt"/><path d="M246.03551,199.825c0,6.35127 -1.06332,11.5 -2.375,11.5c-1.31168,0 -2.375,-5.14873 -2.375,-11.5c0,-6.35127 1.06332,-11.5 2.375,-11.5c1.31168,0 2.375,5.14873 2.375,11.5z" fill="#fff700" stroke="#000000" stroke-linecap="butt"/><path d="M235.28551,209.325c0,1.38071 -1.11929,2.5 -2.5,2.5c-1.38071,0 -2.5,-1.11929 -2.5,-2.5c0,-1.38071 1.11929,-2.5 2.5,-2.5c1.38071,0 2.5,1.11929 2.5,2.5z" fill="#dadada" stroke="#000000" stroke-linecap="butt"/><path d="M246.28551,209.95c0,1.31168 -1.06332,2.375 -2.375,2.375c-1.31168,0 -2.375,-1.06332 -2.375,-2.375c0,-1.31168 1.06332,-2.375 2.375,-2.375c1.31168,0 2.375,1.06332 2.375,2.375z" fill="#dadada" stroke="#000000" stroke-linecap="butt"/><path d="M219.78551,182.825c0,0 -4,-4.3033 -4,-5c0,-3.55248 6.25,-17 6.25,-17c0,0 2.72394,-8.25 3.75,-8.25c0.26493,0 4,3 4,3l-5.5,18z" fill="#fff700" stroke="#000000" stroke-linecap="butt"/><path d="M259.53551,183.325c0,0 -3.83121,-5.68048 -5.31237,-8.97194c-2.0688,-4.59735 -6.68763,-20.02806 -6.68763,-20.02806c0,0 3.60585,-0.25 5.25,-0.25c0.70106,0 4.5,6.5 4.5,6.5l7.5,20.25z" fill="#fff700" stroke="#000000" stroke-linecap="butt"/><path d="M218.03551,180.575c0,0 -2,-1.34347 -2,-2.25c0,-1.38476 1,-5.5 1,-5.5l5.25,3.5l-3,5.5z" fill="#d0d0d0" stroke="#000000" stroke-linecap="butt"/><path d="M260.03551,183.2l-2.25,-4.375l5.75,-1.75l1,3.625z" fill="#d0d0d0" stroke="#000000" stroke-linecap="butt"/><path d="M233.28551,137.075c0,1.24264 -0.72753,2.25 -1.625,2.25c-0.89747,0 -1.625,-1.00736 -1.625,-2.25c0,-1.24264 0.72753,-2.25 1.625,-2.25c0.89747,0 1.625,1.00736 1.625,2.25z" fill="#00a9ff" stroke="#000000" stroke-linecap="butt"/><path d="M247.28551,137.7c0,1.31168 -0.7835,2.375 -1.75,2.375c-0.9665,0 -1.75,-1.06332 -1.75,-2.375c0,-1.31168 0.7835,-2.375 1.75,-2.375c0.9665,0 1.75,1.06332 1.75,2.375z" fill="#00a9ff" stroke="#000000" stroke-linecap="butt"/><path d="M239.53551,145.825l-1.25,-8.75l0.25,8.5z" fill="none" stroke="#000000" stroke-linecap="round"/><path d="M247.28551,137.45c0,1.58782 -0.7835,2.875 -1.75,2.875c-0.9665,0 -1.75,-1.28718 -1.75,-2.875c0,-1.58782 0.7835,-2.875 1.75,-2.875c0.9665,0 1.75,1.28718 1.75,2.875z" fill="#ff0000" stroke="#000000" stroke-linecap="butt"/><ellipse cx="588.57102" cy="277.65" transform="scale(0.5,0.5)" rx="0" ry="0" fill="#ff0000" stroke="#000000" stroke-linecap="butt"/></g></g></svg>